<svg width="800" height="800" viewBox="0 0 800 800" fill="none" xmlns="http://www.w3.org/2000/svg">
<path d="M708 177.333H91.6667C86.1438 177.333 81.6667 181.811 81.6667 187.333V740C81.6667 745.523 86.1438 750 91.6667 750H708C713.523 750 718 745.523 718 740V187.333C718 181.811 713.523 177.333 708 177.333Z" stroke="#7F3FB1" stroke-width="63.6667" stroke-miterlimit="10"/>
<path d="M18.3333 750H781.667" stroke="#7F3FB1" stroke-width="63.6667" stroke-miterlimit="10"/>
<path d="M644.333 50H155.333C149.811 50 145.333 54.4772 145.333 60V167.333C145.333 172.856 149.811 177.333 155.333 177.333H644.333C649.856 177.333 654.333 172.856 654.333 167.333V60C654.333 54.4772 649.856 50 644.333 50Z" stroke="#7F3FB1" stroke-width="63.6667" stroke-miterlimit="10"/>
<path d="M549.333 559H251C245.477 559 241 563.477 241 569V740C241 745.523 245.477 750 251 750H549.333C554.856 750 559.333 745.523 559.333 740V569C559.333 563.477 554.856 559 549.333 559Z" stroke="#7F3FB1" stroke-width="63.6667" stroke-miterlimit="10"/>
<path d="M177.333 304.667H241" stroke="#7F3FB1" stroke-width="63.6667" stroke-miterlimit="10"/>
<path d="M304.667 304.667H368.333" stroke="#7F3FB1" stroke-width="63.6667" stroke-miterlimit="10"/>
<path d="M431.667 304.667H495.333" stroke="#7F3FB1" stroke-width="63.6667" stroke-miterlimit="10"/>
<path d="M559 304.667H622.667" stroke="#7F3FB1" stroke-width="63.6667" stroke-miterlimit="10"/>
<path d="M177.333 431.667H241" stroke="#7F3FB1" stroke-width="63.6667" stroke-miterlimit="10"/>
<path d="M304.667 431.667H368.333" stroke="#7F3FB1" stroke-width="63.6667" stroke-miterlimit="10"/>
<path d="M431.667 431.667H495.333" stroke="#7F3FB1" stroke-width="63.6667" stroke-miterlimit="10"/>
<path d="M559 431.667H622.667" stroke="#7F3FB1" stroke-width="63.6667" stroke-miterlimit="10"/>
<path d="M400 559V750" stroke="#7F3FB1" stroke-width="63.6667" stroke-miterlimit="10"/>
<path d="M128 432C172.788 432 209.192 516.391 209.192 572.452C209.192 628.514 172.884 673.96 128.096 673.96C83.3078 673.96 47 628.514 47 572.452C47 516.391 83.212 432 128 432Z" fill="#8184A7"/>
<path d="M142.15 708.056C142.028 707.823 141.86 707.616 141.658 707.448C141.455 707.28 141.222 707.153 140.97 707.075C140.719 706.997 140.455 706.969 140.192 706.993C139.93 707.018 139.675 707.093 139.442 707.216L131.322 711.491L128.542 552.041H128.319L124.086 781.96H132.552L131.401 715.981L141.311 710.764C141.544 710.642 141.75 710.474 141.918 710.272C142.087 710.069 142.214 709.835 142.292 709.584C142.369 709.332 142.397 709.068 142.373 708.806C142.349 708.544 142.273 708.289 142.15 708.056Z" fill="#3F3D56"/>
</svg>
