<svg width="800" height="800" viewBox="0 0 800 800" fill="none" xmlns="http://www.w3.org/2000/svg">
<path d="M147.5 450L177.5 510C182.5 520 190 525 200 525H625C635 525 642.5 520 647.5 510L677.5 450H147.5Z" fill="#7F3FB1"/>
<path d="M100 425H135H690H725C740 425 750 415 750 400C750 385 740 375 725 375H700C695 242.5 597.5 132.5 472.5 105C472.5 100 475 95 475 87.5C475 52.5 447.5 25 412.5 25C377.5 25 350 52.5 350 87.5C350 95 352.5 100 352.5 105C227.5 132.5 132.5 242.5 125 375H100C85 375 75 385 75 400C75 415 85 425 100 425Z" fill="#7F3FB1"/>
<path d="M612.375 547.5C609.875 542.5 602.375 540 597.375 540C587.375 540 579.875 540 569.875 542.5L542.375 580C514.875 617.5 469.875 640 422.375 640H414.875H397.375H364.875H347.375C332.375 640 322.375 630 322.375 615C322.375 600 332.375 590 347.375 590H434.875C442.375 582.5 447.375 570 447.375 557.5V555C447.375 545 439.875 540 429.875 540H329.875C269.875 540 222.375 567.5 194.875 610L149.875 680C147.375 685 147.375 692.5 149.875 697.5L199.875 780C202.375 785 204.875 787.5 209.875 787.5H212.375C214.875 787.5 219.875 787.5 222.375 785C284.875 742.5 359.875 720 434.875 720C489.875 720 539.875 690 564.875 642.5L609.875 562.5C614.875 560 614.875 552.5 612.375 547.5Z" fill="#7F3FB1"/>
<path d="M507.201 239.071C505.52 236.501 504.129 233.752 503.054 230.875C502.189 227.877 501.627 224.801 501.375 221.691C501.255 214.137 499.069 206.761 495.055 200.361C490.191 194.516 483.798 190.14 476.589 187.721C473.678 186.61 470.897 185.186 468.294 183.475C465.938 181.526 463.787 179.343 461.875 176.957C457.279 170.816 451.101 166.037 444.001 163.132C436.859 161.44 429.395 161.679 422.375 163.824C416.075 165.304 409.518 165.304 403.218 163.824C395.982 161.552 388.262 161.313 380.9 163.132C373.836 166.053 367.694 170.83 363.125 176.957C361.182 179.348 358.998 181.532 356.608 183.475C354.004 185.186 351.223 186.61 348.313 187.721C341.068 190.123 334.638 194.501 329.748 200.361C325.803 206.781 323.686 214.156 323.625 221.691C323.374 224.801 322.811 227.877 321.946 230.875C320.858 233.684 319.467 236.366 317.799 238.874C313.329 245.249 310.699 252.73 310.195 260.5C310.735 268.201 313.363 275.61 317.799 281.929C319.467 284.437 320.858 287.119 321.946 289.927C322.758 292.996 323.254 296.139 323.428 299.309C323.547 306.862 325.733 314.239 329.748 320.639C334.611 326.484 341.005 330.86 348.214 333.279C351.124 334.39 353.906 335.814 356.509 337.525C358.899 339.468 361.083 341.652 363.026 344.042C367.623 350.184 373.8 354.962 380.9 357.867C383.682 358.728 386.579 359.161 389.491 359.151C394.029 359.009 398.535 358.347 402.921 357.176C409.221 355.696 415.779 355.696 422.079 357.176C429.222 359.393 436.832 359.631 444.1 357.867C451.164 354.947 457.306 350.17 461.875 344.042C463.818 341.652 466.002 339.468 468.393 337.525C470.996 335.814 473.777 334.39 476.688 333.279C483.896 330.86 490.29 326.484 495.154 320.639C499.133 314.229 501.285 306.853 501.375 299.309C501.549 296.139 502.045 292.996 502.856 289.927C503.945 287.119 505.336 284.437 507.004 281.929C511.51 275.631 514.207 268.221 514.805 260.5C514.266 252.799 511.637 245.39 507.201 239.071Z" fill="white"/>
<path d="M402.625 235.813C402.625 238.742 401.756 241.606 400.129 244.042C398.501 246.478 396.188 248.376 393.481 249.497C390.774 250.619 387.796 250.912 384.923 250.34C382.049 249.769 379.41 248.358 377.338 246.287C375.267 244.215 373.856 241.576 373.285 238.702C372.713 235.829 373.006 232.851 374.127 230.144C375.249 227.437 377.147 225.124 379.583 223.496C382.019 221.869 384.883 221 387.812 221C391.741 221 395.509 222.561 398.286 225.338C401.064 228.116 402.625 231.884 402.625 235.813ZM437.187 270.375C434.258 270.375 431.394 271.244 428.958 272.871C426.522 274.499 424.624 276.812 423.502 279.519C422.381 282.226 422.088 285.204 422.66 288.077C423.231 290.951 424.642 293.59 426.713 295.662C428.785 297.733 431.424 299.144 434.298 299.715C437.171 300.287 440.149 299.994 442.856 298.872C445.563 297.751 447.876 295.853 449.504 293.417C451.131 290.981 452 288.117 452 285.188C452 281.259 450.439 277.491 447.661 274.713C444.884 271.936 441.116 270.375 437.187 270.375ZM389.886 297.136L449.136 237.886C450.996 236.027 452.04 233.505 452.04 230.875C452.04 228.245 450.996 225.723 449.136 223.864C447.277 222.004 444.755 220.96 442.125 220.96C439.495 220.96 436.973 222.004 435.114 223.864L375.864 283.114C374.938 284.032 374.203 285.124 373.702 286.327C373.201 287.531 372.943 288.821 372.943 290.125C372.943 291.429 373.201 292.719 373.702 293.923C374.203 295.126 374.938 296.218 375.864 297.136C376.782 298.062 377.874 298.796 379.077 299.298C380.281 299.799 381.571 300.057 382.875 300.057C384.179 300.057 385.469 299.799 386.673 299.298C387.876 298.796 388.968 298.062 389.886 297.136Z" fill="#8184A7"/>
</svg>
