<svg width="402" height="167" viewBox="0 0 402 167" fill="none" xmlns="http://www.w3.org/2000/svg">
<path d="M110.158 99.4277C110.501 99.5683 110.678 99.8547 110.678 100.282C110.678 100.714 110.564 101.193 110.345 101.719C110.137 102.235 109.981 102.672 109.887 103.032C106.204 111.615 101.856 119.839 96.8451 127.699C91.8295 135.574 85.8087 142.511 78.7826 148.511C75.0587 151.594 71.1264 154.386 66.9909 156.886C62.8659 159.386 58.418 161.48 53.6576 163.178C50.6576 164.245 47.918 164.995 45.4493 165.428C42.9753 165.87 40.1003 166.063 36.8243 166.011C34.9753 166.063 33.1212 166.016 31.2618 165.865C29.3972 165.725 27.517 165.407 25.6159 164.907C16.8243 162.407 10.2878 157.058 6.01178 148.865C4.56386 146.016 3.43365 143.126 2.61594 140.199C1.79303 137.266 1.18365 134.324 0.782609 131.365C-0.217391 123.438 -0.259058 115.646 0.657609 107.99C1.90761 97.3547 4.06386 87.1308 7.13678 77.3235C10.2201 67.5058 14.1055 58.0683 18.8034 49.011C23.9284 38.9433 30.2253 29.7298 37.6993 21.3652C42.8764 15.5475 48.7826 10.5839 55.4076 6.46933C60.3503 3.31829 65.8451 1.25579 71.8868 0.281834C74.5534 -0.186917 77.2462 -0.0723328 79.9701 0.636001C84.2201 1.66725 86.9284 4.28183 88.0951 8.49017C88.9128 11.8964 88.9128 16.11 88.0951 21.136C87.2722 26.1673 85.9753 31.4173 84.1993 36.886C82.4337 42.36 80.4753 47.4381 78.3243 52.1152C76.168 56.7818 74.1993 60.5006 72.4076 63.261C71.8764 63.985 71.2305 64.4225 70.4701 64.5735C69.7201 64.7141 68.8868 64.6568 67.9701 64.4068C67.4962 64.3131 67.1159 64.0631 66.8243 63.6568C66.5326 63.2402 66.4753 62.86 66.6576 62.511C66.8243 61.9277 67.043 61.3756 67.3243 60.8443C67.4597 60.5527 67.6055 60.2402 67.7618 59.9068C68.4284 58.3235 69.1993 56.5839 70.0743 54.6777C71.9753 50.4277 73.9545 45.7766 76.0118 40.7193C78.0639 35.6516 79.7305 30.61 81.0118 25.5943C82.3034 20.5839 82.7722 16.0423 82.4284 11.9693C81.7878 5.10996 78.3034 2.54746 71.9701 4.28183C69.1628 5.04746 66.5587 6.06829 64.1576 7.34433C61.7514 8.60996 59.4493 10.0318 57.2409 11.6152C52.8243 14.8131 48.793 18.36 45.1576 22.261C41.5326 26.1516 38.2097 30.2975 35.1993 34.6985C20.3087 56.3652 11.1628 80.9172 7.76178 108.344C6.76178 116.292 6.78782 124.396 7.84511 132.657C8.41282 137.417 9.79303 142.1 11.9909 146.699C14.2097 151.209 16.8451 154.662 19.8868 157.053C22.9389 159.438 26.1159 161.011 29.4076 161.761C32.6993 162.511 35.793 162.719 38.6993 162.386C43.793 161.803 48.5847 160.459 53.0743 158.365C62.0014 154.308 69.293 149.98 74.9493 145.386C80.6159 140.787 85.3712 135.959 89.2201 130.907C93.0639 125.85 96.6628 120.563 100.012 115.032C101.356 112.855 102.517 110.74 103.491 108.698C104.658 106.297 106.178 103.615 108.053 100.657C108.689 99.7402 109.392 99.3339 110.158 99.4277Z" fill="#7F3FB1"/>
<path d="M134.045 105.969C134.487 104.886 134.972 104.344 135.503 104.344C136.029 104.344 136.201 104.886 136.024 105.969C135.149 108.667 134.097 111.251 132.878 113.719C131.67 116.178 130.024 118.386 127.94 120.344C126.357 121.928 124.467 122.949 122.274 123.407C119.284 123.824 116.821 123.464 114.878 122.324C112.946 121.188 111.409 119.553 110.274 117.428C109.133 115.303 108.284 112.985 107.732 110.469C107.175 107.943 106.821 105.49 106.67 103.115C106.253 98.6309 105.94 92.7298 105.732 85.4069C105.534 78.0892 105.607 70.3548 105.94 62.1986C106.284 54.0319 107.086 46.4694 108.336 39.5111C109.597 32.5423 111.446 27.1361 113.878 23.3027C115.279 21.4277 116.909 20.4798 118.774 20.4486C120.633 20.4225 122.284 21.2767 123.732 23.0111C124.717 24.36 125.461 25.7923 125.961 27.3027C126.461 28.8027 126.784 30.334 126.94 31.8861C127.467 37.2507 127.399 42.9069 126.732 48.8652C126.076 54.8236 125.034 61.1882 123.607 67.9486C122.19 74.6986 120.487 80.6517 118.503 85.8027C116.529 90.959 114.883 95.0423 113.565 98.0527C112.842 99.2611 112.576 101.094 112.774 103.553C113.008 106.219 113.513 109.006 114.295 111.907C115.071 114.813 116.159 117.11 117.565 118.803C118.883 120.209 120.362 120.646 122.003 120.115C123.638 119.589 125.274 118.48 126.899 116.782C128.524 115.089 129.951 113.251 131.19 111.261C132.425 109.261 133.378 107.501 134.045 105.969ZM112.92 65.4486C112.763 67.1882 112.612 69.8184 112.461 73.3444C112.321 76.8757 112.19 80.459 112.065 84.0944C111.951 88.1673 111.826 91.3392 111.69 93.6152C112.993 90.7142 114.503 86.4902 116.211 80.9486C117.93 75.3965 119.493 68.8548 120.899 61.3236C122.315 53.7975 123.237 45.6517 123.67 36.8861C123.43 31.7611 122.815 28.2923 121.815 26.4694C120.826 24.6517 119.753 24.4902 118.586 25.9902C117.43 27.4902 116.508 30.6569 115.815 35.4902C114.758 43.5059 113.94 51.5267 113.357 59.5527C113.201 61.5267 113.055 63.4902 112.92 65.4486Z" fill="#7F3FB1"/>
<path d="M178.417 104.073C177.693 106.282 176.256 108.823 174.104 111.698C171.948 114.563 169.261 116.402 166.042 117.219C162.818 118.042 160.032 117.928 157.688 116.886C155.339 115.844 154.047 113.053 153.813 108.511C151.146 113.678 148.604 116.99 146.188 118.448C143.771 119.896 141.25 120.448 138.625 120.115C135.677 119.646 133.688 118.501 132.646 116.678C131.594 114.844 131.24 112.735 131.584 110.344C131.933 107.959 132.662 105.667 133.771 103.469C134.631 101.834 135.834 100.318 137.375 98.9277C138.927 97.5266 140.547 96.4277 142.229 95.636C144.323 94.5839 146.427 94.0839 148.542 94.136C150.651 94.1777 152.907 94.8756 155.313 96.2193C155.365 96.2766 155.396 96.2297 155.396 96.0735C155.396 95.8391 155.448 95.5422 155.563 95.1777C155.688 94.8183 155.896 94.5318 156.188 94.3235C156.979 93.7402 157.917 93.4485 159 93.4485C160.084 93.4485 160.917 93.9902 161.5 95.0735C161.594 96.4797 161.448 98.261 161.063 100.428C160.188 105.178 160.177 108.594 161.042 110.678C161.917 112.761 163.459 113.735 165.667 113.594C167.875 113.459 170.735 111.282 174.25 107.073C177.761 102.855 179.151 101.855 178.417 104.073ZM139.438 115.24C140.646 116.115 142.032 116.001 143.604 114.886C145.172 113.777 146.677 112.209 148.125 110.178C149.584 108.136 150.802 106.105 151.792 104.073C152.792 102.032 153.344 100.527 153.459 99.5527C150.5 97.9693 147.959 97.6985 145.834 98.7402C143.719 99.7818 142.042 101.485 140.792 103.844C139.542 106.209 138.797 108.506 138.563 110.74C138.323 112.98 138.615 114.48 139.438 115.24Z" fill="#7F3FB1"/>
<path d="M199.635 102.803C199.635 103.417 198.348 104.49 195.78 106.032C193.223 107.574 191.333 108.735 190.114 109.511C188.905 110.292 188.301 110.777 188.301 110.969C188.536 111.501 188.786 112.381 189.051 113.615C189.312 114.855 189.411 116.199 189.343 117.657C189.286 119.105 188.822 120.396 187.947 121.532C187.072 122.673 185.619 123.36 183.593 123.594C181.562 123.751 179.749 123.438 178.155 122.657C176.556 121.881 175.562 120.756 175.155 119.282C174.739 117.798 175.228 116.068 176.614 114.094C177.541 112.985 178.655 112.021 179.947 111.199C180.39 110.907 180.853 110.589 181.343 110.24C179.786 108.563 178.306 106.839 176.905 105.074C175.504 103.298 174.603 101.709 174.197 100.303C173.78 98.6933 174.062 97.1777 175.03 95.761C175.989 94.334 177.655 93.5006 180.03 93.261C181.197 93.1517 182.286 93.209 183.301 93.4277C184.312 93.6517 185.26 94.1465 186.135 94.9069C186.312 95.1048 186.437 95.3131 186.51 95.5319C186.593 95.7558 186.556 96.0423 186.405 96.386C186.114 96.9173 185.676 97.1777 185.093 97.1777C184.676 97.1777 184.265 97.1256 183.864 97.011C183.447 96.834 183.062 96.6673 182.718 96.511C182.478 96.3756 182.26 96.2506 182.051 96.136C181.286 95.86 180.697 95.9069 180.28 96.2819C179.874 96.6465 179.676 97.209 179.676 97.9694C179.728 99.3183 180.286 100.756 181.343 102.282C182.395 103.813 183.437 105.23 184.468 106.532C184.885 106.98 185.239 107.407 185.53 107.824C185.822 108.115 186.583 108.074 187.822 107.699C189.072 107.313 191.348 106.251 194.655 104.511C197.973 102.761 199.635 102.193 199.635 102.803ZM181.926 120.615C182.687 120.574 183.187 120.157 183.426 119.365C183.676 118.574 183.765 117.709 183.697 116.761C183.624 115.803 183.562 115.084 183.51 114.594C183.411 114.318 183.228 114.136 182.968 114.053C182.702 113.969 182.452 113.985 182.218 114.094C181.343 114.777 180.697 115.646 180.28 116.699C179.874 117.756 179.911 118.678 180.385 119.469C180.536 119.761 180.744 120.021 181.01 120.24C181.286 120.449 181.593 120.574 181.926 120.615Z" fill="#7F3FB1"/>
<path d="M220.985 102.803C220.985 103.417 219.699 104.49 217.131 106.032C214.574 107.574 212.683 108.735 211.465 109.511C210.256 110.292 209.652 110.777 209.652 110.969C209.886 111.501 210.136 112.381 210.402 113.615C210.663 114.855 210.761 116.199 210.694 117.657C210.636 119.105 210.173 120.396 209.298 121.532C208.423 122.673 206.97 123.36 204.944 123.594C202.913 123.751 201.1 123.438 199.506 122.657C197.907 121.881 196.913 120.756 196.506 119.282C196.09 117.798 196.579 116.068 197.965 114.094C198.892 112.985 200.006 112.021 201.298 111.199C201.741 110.907 202.204 110.589 202.694 110.24C201.136 108.563 199.657 106.839 198.256 105.074C196.855 103.298 195.954 101.709 195.548 100.303C195.131 98.6933 195.413 97.1777 196.381 95.761C197.34 94.334 199.006 93.5006 201.381 93.261C202.548 93.1517 203.636 93.209 204.652 93.4277C205.663 93.6517 206.61 94.1465 207.485 94.9069C207.663 95.1048 207.788 95.3131 207.86 95.5319C207.944 95.7558 207.907 96.0423 207.756 96.386C207.465 96.9173 207.027 97.1777 206.444 97.1777C206.027 97.1777 205.616 97.1256 205.215 97.011C204.798 96.834 204.413 96.6673 204.069 96.511C203.829 96.3756 203.61 96.2506 203.402 96.136C202.636 95.86 202.048 95.9069 201.631 96.2819C201.225 96.6465 201.027 97.209 201.027 97.9694C201.079 99.3183 201.636 100.756 202.694 102.282C203.746 103.813 204.788 105.23 205.819 106.532C206.235 106.98 206.59 107.407 206.881 107.824C207.173 108.115 207.933 108.074 209.173 107.699C210.423 107.313 212.699 106.251 216.006 104.511C219.324 102.761 220.985 102.193 220.985 102.803ZM203.277 120.615C204.038 120.574 204.538 120.157 204.777 119.365C205.027 118.574 205.116 117.709 205.048 116.761C204.975 115.803 204.913 115.084 204.86 114.594C204.761 114.318 204.579 114.136 204.319 114.053C204.053 113.969 203.803 113.985 203.569 114.094C202.694 114.777 202.048 115.646 201.631 116.699C201.225 117.756 201.261 118.678 201.735 119.469C201.886 119.761 202.095 120.021 202.36 120.24C202.636 120.449 202.944 120.574 203.277 120.615Z" fill="#7F3FB1"/>
<path d="M238.857 108.344C238.034 110.042 236.638 111.917 234.669 113.969C232.711 116.027 230.482 117.334 227.982 117.886C225.482 118.443 223.097 117.589 220.836 115.324C219.961 114.313 219.315 113.152 218.899 111.844C218.492 110.542 218.347 109.256 218.461 107.99C218.461 107.647 218.461 107.209 218.461 106.678C218.461 105.334 218.513 103.777 218.628 102.011C218.753 100.235 219.013 98.6361 219.419 97.2194C219.836 95.7924 220.472 94.9278 221.336 94.6361C223.847 94.0111 225.211 94.8861 225.419 97.2611C225.419 98.0267 225.388 98.7924 225.336 99.5528C225.294 99.9434 225.274 100.313 225.274 100.657C225.216 101.772 225.159 102.881 225.107 103.99C225.107 104.865 225.065 105.735 224.982 106.594C224.94 110.428 225.8 112.714 227.565 113.449C229.326 114.173 231.341 113.402 233.607 111.136C235.883 108.86 237.367 106.969 238.065 105.469C238.774 103.959 239.284 103.636 239.607 104.511C239.925 105.376 239.675 106.652 238.857 108.344ZM224.919 86.4694C224.571 86.7611 224.149 86.9486 223.649 87.0319C223.159 87.1153 222.737 87.0736 222.378 86.9069C222.086 86.6726 221.899 86.3653 221.815 85.9903C221.742 85.6048 221.711 85.1465 221.711 84.6153C221.711 84.5215 221.732 84.4174 221.774 84.3028C221.826 83.834 221.946 83.3548 222.128 82.8653C222.654 81.6048 223.753 81.0267 225.419 81.1361C226.003 81.2194 226.461 81.4642 226.794 81.8653C227.128 82.2559 227.196 82.7142 227.003 83.2403C226.612 84.5319 225.919 85.6101 224.919 86.4694Z" fill="#7F3FB1"/>
<path d="M279.223 109.219C276.124 113.152 273.244 115.688 270.577 116.824C267.911 117.964 265.499 118.24 263.348 117.657C261.192 117.074 259.332 116.131 257.765 114.824C256.192 113.521 255.041 112.402 254.306 111.469C254.015 111.178 253.796 110.985 253.661 110.886C255.645 113.943 257.036 117.943 257.827 122.886C258.619 127.813 258.603 132.141 257.786 135.865C257.02 138.667 255.536 140.412 253.327 141.094C251.119 141.787 248.827 141.24 246.452 139.449C245.062 138.225 243.957 136.766 243.14 135.074C241.733 132.365 240.687 129.532 239.994 126.574C238.895 122.324 238.187 118.021 237.869 113.657C237.551 109.297 237.442 104.917 237.536 100.511C237.786 94.1673 238.431 87.886 239.473 81.6777C240.515 75.4589 241.879 69.2714 243.577 63.1152C244.577 59.1464 245.973 54.5318 247.765 49.2818C249.556 44.0318 251.77 39.0266 254.411 34.261C257.062 29.485 260.15 25.8339 263.681 23.3027C265.223 22.1933 266.916 21.4641 268.765 21.1152C273.515 20.3548 276.874 20.9173 278.848 22.8027C280.832 24.6933 281.728 27.5266 281.536 31.3027C281.338 35.0839 280.395 39.4277 278.702 44.3443C277.004 49.2506 274.869 54.3183 272.286 59.5527C269.702 64.7766 267.025 69.7975 264.265 74.6152C261.499 79.4381 258.942 83.6673 256.598 87.3027C254.249 90.9277 252.442 93.5891 251.181 95.2818C250.806 95.8131 250.395 96.36 249.952 96.9277C249.754 97.2193 249.515 97.5423 249.223 97.886C253.348 103.86 256.994 107.959 260.161 110.178C263.327 112.386 266.082 113.36 268.431 113.094C270.791 112.834 272.796 111.98 274.452 110.532C276.119 109.074 277.473 107.615 278.515 106.157C279.608 104.714 280.421 103.99 280.952 103.99C281.77 104.23 281.931 104.855 281.431 105.865C280.931 106.881 280.192 108.001 279.223 109.219ZM245.306 90.9902C245.067 92.6881 245.119 93.761 245.452 94.2193C245.786 94.6777 246.525 94.0943 247.681 92.4693C249.483 89.985 251.723 86.6256 254.39 82.386C257.056 78.1516 259.838 73.4589 262.744 68.3027C265.645 63.1516 268.254 57.9381 270.577 52.6568C272.911 47.3652 274.598 42.4277 275.64 37.8443C276.681 33.2506 276.733 29.4173 275.806 26.3443C275.358 25.0527 274.556 24.261 273.39 23.9693C272.233 23.6777 270.983 23.8964 269.64 24.6152C266.775 26.2298 264.161 29.1048 261.786 33.2402C259.411 37.3652 257.275 42.1464 255.39 47.5735C253.499 52.9902 251.853 58.5318 250.452 64.1985C249.062 69.8652 247.931 75.0683 247.056 79.8027C246.181 84.5423 245.598 88.2714 245.306 90.9902ZM247.327 126.719C248.353 130.73 249.265 133.594 250.056 135.303C250.848 137.021 251.374 137.183 251.64 135.782C251.9 134.391 251.827 131.058 251.411 125.782C251.062 121.714 250.395 117.417 249.411 112.886C248.421 108.36 247.082 104.719 245.39 101.969C244.749 104.719 244.629 108.521 245.036 113.365C245.452 118.199 246.213 122.652 247.327 126.719Z" fill="#7F3FB1"/>
<path d="M299.78 108.344C298.957 110.042 297.561 111.917 295.592 113.969C293.634 116.027 291.405 117.334 288.905 117.886C286.405 118.443 284.019 117.589 281.759 115.324C280.884 114.313 280.238 113.152 279.822 111.844C279.415 110.542 279.269 109.256 279.384 107.99C279.384 107.647 279.384 107.209 279.384 106.678C279.384 105.334 279.436 103.777 279.551 102.011C279.676 100.235 279.936 98.6361 280.342 97.2194C280.759 95.7924 281.394 94.9278 282.259 94.6361C284.769 94.0111 286.134 94.8861 286.342 97.2611C286.342 98.0267 286.311 98.7924 286.259 99.5528C286.217 99.9434 286.197 100.313 286.197 100.657C286.139 101.772 286.082 102.881 286.03 103.99C286.03 104.865 285.988 105.735 285.905 106.594C285.863 110.428 286.723 112.714 288.488 113.449C290.249 114.173 292.264 113.402 294.53 111.136C296.806 108.86 298.29 106.969 298.988 105.469C299.697 103.959 300.207 103.636 300.53 104.511C300.848 105.376 300.598 106.652 299.78 108.344ZM285.842 86.4694C285.493 86.7611 285.072 86.9486 284.572 87.0319C284.082 87.1153 283.66 87.0736 283.301 86.9069C283.009 86.6726 282.822 86.3653 282.738 85.9903C282.665 85.6048 282.634 85.1465 282.634 84.6153C282.634 84.5215 282.655 84.4174 282.697 84.3028C282.749 83.834 282.868 83.3548 283.051 82.8653C283.577 81.6048 284.676 81.0267 286.342 81.1361C286.926 81.2194 287.384 81.4642 287.717 81.8653C288.051 82.2559 288.118 82.7142 287.926 83.2403C287.535 84.5319 286.842 85.6101 285.842 86.4694Z" fill="#7F3FB1"/>
<path d="M336.854 105.303C337.438 104.959 338.005 104.693 338.563 104.511C339.115 104.318 339.479 104.334 339.646 104.553C339.813 104.761 339.583 105.235 338.958 105.969C336.969 108.235 334.594 110.313 331.833 112.198C329.083 114.089 326.255 115.688 323.354 116.99C321.073 118.021 318.672 118.839 316.146 119.448C313.63 120.047 311.135 120.178 308.667 119.844C306.193 119.5 303.943 118.402 301.917 116.553C298.818 113.693 297.537 110.209 298.063 106.094C298.521 102.818 299.797 100.042 301.896 97.7609C303.99 95.4692 306.635 93.9172 309.833 93.0942C312.5 92.5109 315.167 92.4484 317.833 92.9067C319.052 93.089 320.167 93.4901 321.167 94.1151C322.094 94.839 322.604 95.6776 322.688 96.6359C322.781 97.5838 322.422 98.4849 321.604 99.3442C319.906 100.86 317.948 101.761 315.729 102.053C313.255 102.469 310.76 102.735 308.25 102.844C307.042 102.844 306.188 103.094 305.688 103.594C305.198 104.094 304.922 104.948 304.854 106.157C304.448 109.464 305.505 112.157 308.021 114.24C309.573 115.49 311.464 116.027 313.688 115.844C315.922 115.652 318.292 115.047 320.792 114.032C323.302 113.021 325.76 111.834 328.167 110.469C330.583 109.11 332.75 107.818 334.667 106.594C335.484 106.068 336.214 105.636 336.854 105.303ZM309.313 98.2401C309.313 98.2974 309.276 98.3234 309.208 98.3234C309.094 98.438 308.948 98.5682 308.771 98.7192C308.604 98.8599 308.448 99.0005 308.313 99.1359C308.172 99.2765 308.104 99.3755 308.104 99.4276C308.146 99.6255 308.615 99.6724 309.521 99.5734C310.422 99.4797 311.417 99.3182 312.5 99.0942C313.583 98.8755 314.484 98.5734 315.208 98.1984C315.927 97.813 316.146 97.3547 315.854 96.8234C315.729 96.6567 315.563 96.5213 315.354 96.4067C315.156 96.2817 314.943 96.1932 314.708 96.1359C313.651 96.1359 312.688 96.3442 311.813 96.7609C310.948 97.1672 310.115 97.6567 309.313 98.2401Z" fill="#7F3FB1"/>
<path d="M399.157 105.094C399.391 104.652 399.751 104.417 400.24 104.386C400.74 104.36 401.157 104.667 401.49 105.303C401.626 105.459 401.501 105.902 401.115 106.636C400.74 107.36 400.23 108.178 399.594 109.094C398.969 110.001 398.365 110.824 397.782 111.574C397.199 112.324 396.787 112.818 396.553 113.053C393.938 115.959 391.308 118.089 388.657 119.449C386.016 120.813 383.147 121.105 380.053 120.324C376.969 119.548 373.516 117.355 369.699 113.74C369.115 113.105 368.532 112.464 367.949 111.824C367.792 111.646 367.647 111.48 367.511 111.324C366.87 110.605 366.167 110.506 365.407 111.032C364.615 111.615 363.808 112.199 362.99 112.782C362.282 113.313 361.558 113.798 360.824 114.24C358.365 115.938 355.772 117.365 353.053 118.532C350.147 119.824 347.1 120.324 343.907 120.032C338.907 119.449 336.318 116.693 336.136 111.761C336.084 108.277 336.824 105.152 338.365 102.386C339.917 99.6257 342.074 97.5892 344.824 96.2819C347.584 94.9798 350.766 94.7194 354.365 95.5111C354.751 95.5944 355.282 95.7142 355.949 95.8652C356.334 96.0059 356.824 96.1257 357.407 96.2194C357.058 95.4017 356.745 94.6777 356.469 94.0527C355.938 93.0007 355.475 92.0319 355.074 91.1569C352.667 86.2142 350.709 80.5684 349.199 74.2194C347.699 67.8757 346.959 61.36 346.99 54.6777C347.016 48.0007 348.136 41.7819 350.344 36.0319C352.553 30.2715 356.209 25.5267 361.324 21.8027C364.574 19.61 367.928 18.4225 371.386 18.2402C374.844 18.0475 378.105 18.7975 381.178 20.4902C384.261 22.1725 386.766 24.709 388.699 28.0944C391.183 32.7507 392.719 37.6465 393.303 42.7819C394.355 51.1048 394.183 58.8652 392.782 66.0736C391.376 73.2819 388.907 80.0944 385.365 86.5111C381.834 92.9277 377.334 99.1673 371.865 105.219C371.334 105.803 371.058 106.271 371.032 106.615C371.001 106.949 371.251 107.438 371.782 108.074C372.891 109.521 374.1 110.928 375.407 112.303C376.709 113.678 378.167 114.834 379.782 115.761C382.058 116.735 384.49 116.751 387.074 115.803C389.667 114.844 392.063 113.365 394.261 111.365C396.469 109.355 398.1 107.261 399.157 105.094ZM360.303 108.574C360.98 108.006 361.037 107.344 360.469 106.594C360.12 106.178 359.772 105.751 359.428 105.303C358.48 104.136 357.397 102.943 356.178 101.719C354.969 100.485 353.709 99.5527 352.407 98.9277C351.1 98.2923 349.772 98.235 348.428 98.7611C346.563 99.6361 345.037 101.178 343.844 103.386C342.662 105.584 341.969 107.844 341.761 110.178C341.553 112.501 342.001 114.271 343.115 115.49C344.225 116.699 346.115 116.813 348.782 115.824C352.975 113.98 356.813 111.563 360.303 108.574ZM369.094 99.9902C374.662 93.4069 378.829 86.9382 381.594 80.5736C384.355 74.2142 386.225 66.7715 387.199 58.2402C387.49 56.1569 387.62 53.4277 387.594 50.0527C387.563 46.6673 387.261 43.1309 386.678 39.4486C386.094 35.7559 385.053 32.4017 383.553 29.3861C382.053 26.36 379.949 24.1777 377.24 22.8444C374.532 21.5111 371.063 21.5215 366.844 22.8652C362.188 25.5892 358.74 29.1986 356.49 33.6986C354.251 38.1986 352.975 43.2142 352.657 48.7402C352.334 54.2559 352.699 59.8965 353.74 65.6569C354.782 71.4069 356.23 76.8652 358.094 82.0319C359.969 87.1882 361.975 91.6777 364.115 95.5111C364.35 95.985 364.584 96.459 364.824 96.9277C365.449 98.5007 366.37 99.9173 367.594 101.178C367.772 101.011 367.954 100.865 368.136 100.74C368.48 100.532 368.803 100.282 369.094 99.9902Z" fill="#7F3FB1"/>
</svg>
