<svg width="800" height="800" viewBox="0 0 800 800" fill="none" xmlns="http://www.w3.org/2000/svg">
<path d="M242.8 348.15C242.8 353.673 247.277 358.15 252.8 358.15H353.113C358.635 358.15 363.113 353.673 363.113 348.15V247.762C363.113 242.24 358.635 237.762 353.113 237.762H252.8C247.277 237.762 242.8 242.24 242.8 247.762V348.15ZM308.95 259.775C308.95 254.252 313.427 249.775 318.95 249.775H341.05C346.573 249.775 351.05 254.252 351.05 259.775V281.912C351.05 287.435 346.573 291.912 341.05 291.912H318.95C313.427 291.912 308.95 287.435 308.95 281.912V259.775ZM308.95 313.975C308.95 308.452 313.427 303.975 318.95 303.975H341.05C346.573 303.975 351.05 308.452 351.05 313.975V336.137C351.05 341.66 346.573 346.137 341.05 346.137H318.95C313.427 346.137 308.95 341.66 308.95 336.137V313.975ZM254.825 259.775C254.825 254.252 259.302 249.775 264.825 249.775H286.913C292.435 249.775 296.913 254.252 296.913 259.775V281.912C296.913 287.435 292.435 291.912 286.913 291.912H264.825C259.302 291.912 254.825 287.435 254.825 281.912V259.775ZM254.825 313.975C254.825 308.452 259.302 303.975 264.825 303.975H286.913C292.435 303.975 296.913 308.452 296.913 313.975V336.137C296.913 341.66 292.435 346.137 286.913 346.137H264.825C259.302 346.137 254.825 341.66 254.825 336.137V313.975Z" fill="#7F3FB1"/>
<path d="M448.925 681.375C448.925 686.898 453.402 691.375 458.925 691.375H559.225C564.748 691.375 569.225 686.898 569.225 681.375V580.95C569.225 575.427 564.748 570.95 559.225 570.95H458.925C453.402 570.95 448.925 575.427 448.925 580.95V681.375ZM515.075 593C515.075 587.477 519.552 583 525.075 583H547.175C552.698 583 557.175 587.477 557.175 593V615.125C557.175 620.648 552.698 625.125 547.175 625.125H525.075C519.552 625.125 515.075 620.648 515.075 615.125V593ZM515.075 647.2C515.075 641.677 519.552 637.2 525.075 637.2H547.175C552.698 637.2 557.175 641.677 557.175 647.2V669.325C557.175 674.848 552.698 679.325 547.175 679.325H525.075C519.552 679.325 515.075 674.848 515.075 669.325V647.2ZM460.938 593C460.938 587.477 465.415 583 470.938 583H493.025C498.548 583 503.025 587.477 503.025 593V615.125C503.025 620.648 498.548 625.125 493.025 625.125H470.938C465.415 625.125 460.938 620.648 460.938 615.125V593ZM460.938 647.2C460.938 641.677 465.415 637.2 470.938 637.2H493.025C498.548 637.2 503.025 641.677 503.025 647.2V669.325C503.025 674.848 498.548 679.325 493.025 679.325H470.938C465.415 679.325 460.938 674.848 460.938 669.325V647.2Z" fill="#7F3FB1"/>
<path d="M775 731.862C775 729.633 774.628 727.496 773.945 725.504C772.339 720.821 771.959 715.355 773.584 710.678C774.497 708.049 775 705.229 775 702.287C775 695.314 772.231 688.627 767.301 683.695C762.372 678.763 755.685 675.991 748.712 675.987V675.987C743.8 675.987 738.782 673.833 735.017 670.678C734.96 670.63 734.903 670.582 734.845 670.535C732.543 668.65 729.84 667.317 726.944 666.638C724.047 665.959 721.033 665.952 718.133 666.617V666.617C715.302 667.266 710.845 664.554 710.195 661.723V661.723C709.534 658.844 708.234 656.15 706.392 653.84C704.551 651.53 702.214 649.663 699.554 648.378C696.894 647.092 693.979 646.421 691.025 646.413C684.555 646.413 678.825 649.543 675.237 654.365C672.822 657.611 667.295 659.575 663.25 659.55V659.55C656 659.55 650.112 665.438 650.112 672.725V520.75C650.112 515.227 654.59 510.75 660.112 510.75H682.242C690.895 510.75 695.464 500.506 689.683 494.069L623.455 420.319C621.558 418.206 618.853 417 616.015 417H505.775C500.252 417 495.775 412.523 495.775 407V188.938C495.775 183.415 500.252 178.938 505.775 178.938H534.424C544.677 178.938 548.289 165.347 539.389 160.257L480.835 126.767C477.721 124.986 475.8 121.674 475.8 118.087V60.5625C475.8 56.6344 478.984 53.45 482.913 53.45V53.45C486.841 53.45 490.025 50.2656 490.025 46.3375V35C490.025 29.4771 485.548 25 480.025 25H400.537C395.015 25 390.537 29.4772 390.537 35V46.3375C390.537 50.2656 393.722 53.45 397.65 53.45V53.45C401.578 53.45 404.763 56.6344 404.763 60.5625V65.997C404.763 73.6772 396.464 78.4906 389.797 74.6773L307.915 27.8401C304.839 26.0805 301.061 26.0805 297.985 27.8402L66.4942 160.257C57.595 165.348 61.2071 178.938 71.4594 178.938H100.112C105.635 178.938 110.113 183.415 110.113 188.938V412.016C110.113 415.155 108.639 418.111 106.133 420.001L25.0469 481.145C18.2775 486.25 20.5331 496.934 28.7883 498.867L71.8294 508.943C76.3519 510.001 79.55 514.035 79.55 518.679V636.849C79.55 642.493 71.544 646.413 65.9 646.413V646.413C59.4304 646.413 53.7005 649.543 50.1119 654.365C47.6967 657.611 42.1704 659.575 38.125 659.55V659.55C30.8875 659.55 25 665.425 25 672.713V765C25 770.523 29.4772 775 35 775H765C770.523 775 775 770.523 775 765V761.563C775 756.04 770.523 751.562 765 751.562H755.3C766.175 751.562 775 742.725 775 731.862ZM48 685.85C51.6375 685.85 54.5625 688.775 54.5625 692.413C54.5625 696.05 51.6375 691.312 48 691.312C44.3625 691.312 41.4375 696.05 41.4375 692.413C41.4375 688.775 44.3625 685.85 48 685.85ZM36.7625 712.175C33.1375 712.175 30.2 715.812 30.2 712.175C30.2738 710.482 30.9982 708.884 32.222 707.712C33.4458 706.541 35.0746 705.887 36.7688 705.887C38.4629 705.887 40.0917 706.541 41.3155 707.712C42.5393 708.884 43.2636 710.482 43.3375 712.175C43.35 715.812 40.4 712.175 36.7625 712.175ZM59.325 731.862C52.0625 731.862 46.175 742 46.175 734.725C46.175 731.237 47.5604 727.893 50.0266 725.427C52.4927 722.96 55.8374 721.575 59.325 721.575C62.8126 721.575 66.1574 722.96 68.6235 725.427C71.0896 727.893 72.475 731.237 72.475 734.725C72.475 741.987 66.5875 731.862 59.325 731.862ZM67.675 676.875C62.7625 676.875 58.775 684.2 58.775 679.275C58.7301 678.077 58.9273 676.883 59.3546 675.763C59.782 674.644 60.4308 673.621 61.2623 672.758C62.0937 671.895 63.0907 671.208 64.1936 670.74C65.2966 670.271 66.4827 670.029 67.6812 670.029C68.8797 670.029 70.0659 670.271 71.1689 670.74C72.2718 671.208 73.2688 671.895 74.1003 672.758C74.9317 673.621 75.5805 674.644 76.0079 675.763C76.4352 676.883 76.6324 678.077 76.5875 679.275C76.5875 684.2 72.6 676.875 67.675 676.875ZM135.112 188.938C135.112 183.415 139.59 178.938 145.112 178.938H460.8C466.323 178.938 470.8 183.415 470.8 188.938V407C470.8 412.523 466.323 417 460.8 417H145.112C139.59 417 135.112 412.523 135.112 407V188.938ZM100.538 722.888C95.6125 722.888 91.6375 730.212 91.6375 725.287C91.6375 722.927 92.5752 720.663 94.2442 718.994C95.9133 717.325 98.1771 716.388 100.538 716.388C102.898 716.388 105.162 717.325 106.831 718.994C108.5 720.663 109.438 722.927 109.438 725.287C109.438 730.212 105.463 722.888 100.538 722.888ZM108.5 700.712C108.5 698.977 108.842 697.259 109.506 695.656C110.17 694.053 111.143 692.597 112.37 691.37C113.597 690.143 115.053 689.17 116.656 688.506C118.259 687.842 119.977 687.5 121.713 687.5C123.448 687.5 125.166 687.842 126.769 688.506C128.372 689.17 129.828 690.143 131.055 691.37C132.282 692.597 133.255 694.053 133.919 695.656C134.583 697.259 134.925 698.977 134.925 700.712C134.925 708.012 129 696.525 121.7 696.525C114.413 696.525 108.5 708.012 108.5 700.712ZM128.775 731.9C125.137 731.9 122.213 735.525 122.213 731.9C122.213 728.262 125.137 725.338 128.775 725.338C132.412 725.338 135.337 728.262 135.337 731.9C135.337 735.525 132.412 731.9 128.775 731.9ZM317.125 675.188C315.028 675.187 313.017 674.355 311.534 672.872C310.052 671.389 309.219 669.378 309.219 667.281C309.219 665.184 310.052 663.173 311.534 661.691C313.017 660.208 315.028 659.375 317.125 659.375C319.222 659.375 321.233 660.208 322.716 661.691C324.198 663.173 325.031 665.184 325.031 667.281C325.031 669.378 324.198 671.389 322.716 672.872C321.233 674.355 319.222 675.188 317.125 675.188ZM345.537 750C340.015 750 335.538 745.523 335.538 740V609.325C335.538 606.412 337.899 604.05 340.812 604.05V604.05C343.726 604.05 346.087 601.688 346.087 598.775V593C346.087 587.477 341.61 583 336.087 583H229.737C224.215 583 219.737 587.477 219.737 593V598.8C219.737 601.706 222.094 604.062 225 604.062V604.062C227.906 604.062 230.263 606.419 230.263 609.325V740C230.263 745.523 225.785 750 220.263 750H147.392C145.293 750 144.093 745.975 145.425 744.352V744.352C147.453 741.881 148.848 738.953 149.488 735.821C150.129 732.69 149.995 729.449 149.1 726.381C149.017 726.095 148.927 725.812 148.831 725.532C147.225 720.831 146.833 715.335 148.458 710.641C149.364 708.023 149.862 705.217 149.862 702.287C149.862 695.314 147.093 688.627 142.164 683.695C137.234 678.763 130.548 675.991 123.575 675.987C123.472 675.987 123.37 675.988 123.268 675.99C118.506 676.055 113.648 674.031 110.002 670.967V670.967C107.054 668.489 104.538 665.181 104.538 661.331V520.75C104.538 515.227 109.015 510.75 114.538 510.75H615.113C620.635 510.75 625.112 515.227 625.112 520.75V740C625.112 745.523 620.635 750 615.112 750H345.537ZM673.138 685.85C676.775 685.85 679.7 688.775 679.7 692.413C679.7 696.05 676.775 691.312 673.138 691.312C669.5 691.312 666.575 696.05 666.575 692.413C666.575 688.775 669.5 685.85 673.138 685.85ZM661.9 712.175C658.275 712.175 655.337 715.812 655.337 712.175C655.411 710.482 656.136 708.884 657.359 707.712C658.583 706.541 660.212 705.887 661.906 705.887C663.6 705.887 665.229 706.541 666.453 707.712C667.677 708.884 668.401 710.482 668.475 712.175C668.488 715.812 665.538 712.175 661.9 712.175ZM684.45 731.862C677.2 731.862 671.312 742 671.312 734.725C671.312 731.237 672.698 727.893 675.164 725.427C677.63 722.96 680.975 721.575 684.463 721.575C687.95 721.575 691.295 722.96 693.761 725.427C696.227 727.893 697.612 731.237 697.612 734.725C697.612 741.987 691.725 731.862 684.45 731.862ZM692.812 676.875C687.9 676.875 683.913 684.2 683.913 679.275C683.868 678.077 684.065 676.883 684.492 675.763C684.919 674.644 685.568 673.621 686.4 672.758C687.231 671.895 688.228 671.208 689.331 670.74C690.434 670.271 691.62 670.029 692.819 670.029C694.017 670.029 695.203 670.271 696.306 670.74C697.409 671.208 698.406 671.895 699.238 672.758C700.069 673.621 700.718 674.644 701.145 675.763C701.573 676.883 701.77 678.077 701.725 679.275C701.725 684.2 697.725 676.875 692.812 676.875ZM725.663 722.888C720.75 722.888 716.775 730.212 716.775 725.287C716.775 722.927 717.713 720.663 719.382 718.994C721.051 717.325 723.315 716.388 725.675 716.388C728.035 716.388 730.299 717.325 731.968 718.994C733.637 720.663 734.575 722.927 734.575 725.287C734.575 730.212 730.588 722.888 725.663 722.888ZM733.625 700.712C733.625 697.207 735.018 693.844 737.497 691.365C739.976 688.886 743.338 687.494 746.844 687.494C750.35 687.494 753.712 688.886 756.191 691.365C758.67 693.844 760.062 697.207 760.062 700.712C760.062 708.012 754.138 696.525 746.838 696.525C739.55 696.525 733.625 708.012 733.625 700.712ZM753.912 731.9C750.275 731.9 747.35 735.525 747.35 731.9C747.35 728.262 750.275 725.338 753.912 725.338C757.55 725.338 760.475 728.262 760.475 731.9C760.475 735.525 757.55 731.9 753.912 731.9Z" fill="#7F3FB1"/>
<line x1="120.527" y1="671.102" x2="120.527" y2="775" stroke="black" stroke-width="16.7578"/>
<rect x="44" y="632" width="163.109" height="78.2031" rx="11.1719" fill="#8184A7"/>
<path d="M73.0823 662.363C72.9445 660.847 72.3314 659.669 71.2429 658.829C70.1682 657.975 68.6319 657.547 66.6341 657.547C65.3113 657.547 64.2091 657.72 63.3273 658.064C62.4455 658.409 61.7841 658.884 61.3432 659.49C60.9023 660.083 60.6749 660.765 60.6612 661.536C60.6336 662.17 60.7576 662.728 61.0332 663.21C61.3225 663.693 61.7359 664.12 62.2732 664.492C62.8244 664.85 63.4857 665.167 64.2573 665.442C65.0289 665.718 65.8969 665.959 66.8614 666.166L70.4989 666.992C72.5932 667.447 74.4395 668.053 76.0377 668.811C77.6498 669.569 79.0001 670.471 80.0886 671.519C81.1908 672.566 82.0244 673.771 82.5893 675.135C83.1542 676.499 83.4436 678.029 83.4573 679.724C83.4436 682.397 82.7684 684.691 81.4319 686.606C80.0954 688.521 78.1734 689.988 75.6657 691.008C73.1719 692.028 70.1613 692.537 66.6341 692.537C63.093 692.537 60.0067 692.007 57.375 690.946C54.7434 689.885 52.6973 688.273 51.2368 686.11C49.7763 683.947 49.0254 681.212 48.9841 677.905H58.7804C58.8631 679.269 59.2282 680.406 59.8758 681.315C60.5234 682.224 61.4121 682.913 62.5419 683.382C63.6855 683.85 65.0082 684.084 66.5101 684.084C67.8879 684.084 69.059 683.898 70.0235 683.526C71.0018 683.154 71.7527 682.638 72.2763 681.976C72.7998 681.315 73.0685 680.557 73.0823 679.703C73.0685 678.904 72.8205 678.222 72.3383 677.657C71.856 677.078 71.112 676.582 70.1062 676.169C69.1142 675.742 67.8465 675.349 66.3034 674.991L61.8805 673.957C58.2155 673.117 55.329 671.76 53.2209 669.886C51.1128 667.998 50.0657 665.449 50.0794 662.239C50.0657 659.621 50.7684 657.327 52.1875 655.357C53.6067 653.386 55.5701 651.85 58.0777 650.748C60.5854 649.646 63.4444 649.094 66.6547 649.094C69.934 649.094 72.7792 649.652 75.1904 650.768C77.6154 651.871 79.4961 653.421 80.8326 655.419C82.1691 657.417 82.8511 659.731 82.8787 662.363H73.0823ZM96.4727 692H85.4776L99.7588 649.673H113.379L127.66 692H116.665L106.724 660.337H106.393L96.4727 692ZM95.0053 675.342H117.987V683.113H95.0053V675.342ZM132.217 692V649.673H142.447V683.692H160.056V692H132.217ZM165.352 692V649.673H194.865V657.981H175.582V666.662H193.356V674.991H175.582V683.692H194.865V692H165.352Z" fill="white"/>
</svg>
