<svg width="1687" height="1216" viewBox="0 0 1687 1216" fill="none" xmlns="http://www.w3.org/2000/svg">
<g clip-path="url(#clip0_35_2)">
<path d="M831.737 1210.86H766.937V712.133H819.637C822.189 712.133 824.638 713.144 826.448 714.944C828.257 716.745 829.28 719.188 829.293 721.741L831.737 1210.86Z" fill="#CCCCCC"/>
<path d="M772.993 1213.5H77.1177V858.322H772.993V1213.5Z" fill="white"/>
<path d="M498.713 1212.18H78.4385V859.643H771.672V939.223C771.59 1011.59 742.806 1080.97 691.634 1132.14C640.462 1183.32 571.081 1212.1 498.713 1212.18Z" fill="#F2F2F2"/>
<path d="M821.183 726.3C820.833 726.961 820.562 727.661 820.374 728.386L796.378 820.877L770.351 870.17H79.7595V857.893L119.077 820.877L164.943 733.146C166.968 729.273 169.627 725.767 172.81 722.772C180.072 715.938 189.668 712.133 199.639 712.133H812.645C814.309 712.133 815.945 712.563 817.394 713.382C818.843 714.201 820.056 715.38 820.915 716.805C821.774 718.231 822.25 719.854 822.297 721.517C822.344 723.181 821.96 724.828 821.183 726.3Z" fill="#F2F2F2"/>
<path d="M772.993 1213.5H77.1177V858.322H772.993V1213.5ZM82.4002 1208.22H767.71V863.605H82.4002V1208.22Z" fill="#E6E6E6"/>
<path d="M809.198 773.615L796.377 820.877H119.078L140.963 781.539L809.198 773.615Z" fill="#CCCCCC"/>
<path d="M213.708 1044.44H102.779V1050.58H213.708V1044.44Z" fill="white"/>
<path d="M213.708 1065.93H102.779V1072.07H213.708V1065.93Z" fill="white"/>
<path d="M213.708 1087.41H102.779V1093.55H213.708V1087.41Z" fill="white"/>
<path d="M145.749 976.061C167.786 976.061 185.65 958.197 185.65 936.16C185.65 914.124 167.786 896.259 145.749 896.259C123.713 896.259 105.848 914.124 105.848 936.16C105.848 958.197 123.713 976.061 145.749 976.061Z" fill="white"/>
<path d="M583.07 794.073H549.183V533.261H576.742C578.077 533.261 579.358 533.789 580.304 534.731C581.25 535.673 581.785 536.95 581.792 538.285L583.07 794.073Z" fill="#CCCCCC"/>
<path d="M552.35 795.454H188.44V609.711H552.35V795.454Z" fill="white"/>
<path d="M408.915 794.763H189.13V610.402H551.659V652.018C551.616 689.863 536.563 726.146 509.803 752.907C483.042 779.667 446.76 794.72 408.915 794.763Z" fill="#F2F2F2"/>
<path d="M577.551 540.669C577.368 541.015 577.226 541.381 577.128 541.76L564.58 590.129L550.968 615.907H189.821V609.487L210.383 590.129L234.368 544.25C235.427 542.224 236.818 540.39 238.482 538.824C242.28 535.251 247.298 533.261 252.513 533.261H573.086C573.957 533.261 574.812 533.486 575.57 533.914C576.328 534.342 576.962 534.959 577.411 535.704C577.861 536.45 578.109 537.298 578.134 538.168C578.158 539.038 577.958 539.9 577.551 540.669Z" fill="#F2F2F2"/>
<path d="M552.35 795.454H188.44V609.711H552.35V795.454ZM191.203 792.691H549.588V612.473H191.203V792.691Z" fill="#E6E6E6"/>
<path d="M571.283 565.414L564.579 590.128H210.383L221.828 569.555L571.283 565.414Z" fill="#CCCCCC"/>
<path d="M259.87 707.043H201.859V710.253H259.87V707.043Z" fill="white"/>
<path d="M259.87 718.278H201.859V721.489H259.87V718.278Z" fill="white"/>
<path d="M259.87 729.514H201.859V732.724H259.87V729.514Z" fill="white"/>
<path d="M224.331 671.283C235.855 671.283 245.197 661.941 245.197 650.416C245.197 638.892 235.855 629.55 224.331 629.55C212.807 629.55 203.465 638.892 203.465 650.416C203.465 661.941 212.807 671.283 224.331 671.283Z" fill="white"/>
<path d="M1581.78 1213.32L1581.57 1212.2C1578.14 1193.29 1578.87 1173.86 1583.71 1155.27C1588.55 1136.67 1597.37 1119.35 1609.58 1104.51C1616.49 1096.24 1624.42 1088.88 1633.17 1082.59L1634.01 1081.99L1634.37 1082.95C1638.73 1094.43 1644.22 1105.92 1646.73 1111.01L1648.42 1073.02L1649.38 1072.51C1653.8 1070.15 1658.83 1069.16 1663.81 1069.67C1668.8 1070.18 1673.52 1072.18 1677.36 1075.4C1681.33 1078.59 1684.26 1082.9 1685.76 1087.78C1687.27 1092.65 1687.27 1097.86 1685.79 1102.74C1684.48 1107.2 1683.24 1111.83 1682.04 1116.31C1677.91 1131.69 1673.65 1147.6 1665.39 1161C1659.04 1171.07 1650.52 1179.61 1640.44 1185.97C1630.37 1192.33 1619.01 1196.37 1607.18 1197.77L1581.78 1213.32Z" fill="#F2F2F2"/>
<path d="M1686.88 1212.86C1686.88 1213.27 1686.8 1213.68 1686.65 1214.06C1686.49 1214.44 1686.26 1214.79 1685.97 1215.08C1685.67 1215.37 1685.33 1215.61 1684.94 1215.76C1684.56 1215.92 1684.15 1216 1683.74 1216H3.14309C2.30949 1216 1.51002 1215.67 0.920582 1215.08C0.331141 1214.49 0 1213.69 0 1212.86C0 1212.02 0.331141 1211.22 0.920582 1210.63C1.51002 1210.04 2.30949 1209.71 3.14309 1209.71H1683.74C1684.15 1209.71 1684.56 1209.79 1684.94 1209.95C1685.33 1210.11 1685.67 1210.34 1685.97 1210.63C1686.26 1210.92 1686.49 1211.27 1686.65 1211.65C1686.8 1212.03 1686.88 1212.44 1686.88 1212.86Z" fill="#CCCCCC"/>
<path d="M1305.69 408.664L1257.58 401.774C1241.31 428.978 1235.53 501.388 1235.53 501.388L1188.45 613.283C1185.33 615.401 1182.83 618.303 1181.19 621.696C1179.55 625.089 1178.83 628.855 1179.11 632.614C1179.39 636.372 1180.65 639.992 1182.77 643.107C1184.89 646.222 1187.8 648.724 1191.19 650.359C1194.59 651.995 1198.36 652.708 1202.12 652.425C1205.87 652.143 1209.49 650.875 1212.6 648.75C1215.72 646.625 1218.21 643.717 1219.85 640.32C1221.48 636.923 1222.19 633.155 1221.9 629.397L1299.2 499.156L1305.69 408.664Z" fill="#FFB8B8"/>
<path d="M1298.03 275.116C1305.47 276.269 1312.57 279.049 1318.82 283.258C1325.07 287.467 1330.32 293.001 1334.18 299.467C1338.05 305.934 1340.45 313.173 1341.2 320.669C1341.95 328.166 1341.04 335.737 1338.53 342.842L1328.32 371.776C1328.32 371.776 1322.77 458.897 1301.57 483.489L1236.55 477.603C1236.55 477.603 1248.44 433.649 1239.31 412.382C1233.72 399.358 1234.03 354.375 1239.54 317.782C1240.57 311.137 1242.9 304.761 1246.4 299.018C1249.9 293.276 1254.5 288.28 1259.93 284.317C1265.37 280.354 1271.53 277.501 1278.06 275.922C1284.6 274.343 1291.39 274.069 1298.03 275.116Z" fill="#E6E6E6"/>
<path d="M1457.01 1179.1L1428.03 1179.1L1414.24 1067.33L1457.01 1067.33L1457.01 1179.1Z" fill="#FFB6B6"/>
<path d="M1458.03 1209.33L1368.92 1209.32V1208.2C1368.92 1199 1372.57 1190.18 1379.08 1183.67C1385.58 1177.17 1394.4 1173.51 1403.6 1173.51L1419.88 1161.17L1450.25 1173.52L1458.03 1173.52L1458.03 1209.33Z" fill="#2F2E41"/>
<path d="M1331.03 1040.58L1304.26 1051.67L1248.71 953.714L1288.22 937.333L1331.03 1040.58Z" fill="#FFB6B6"/>
<path d="M1343.55 1068.11L1261.24 1102.24L1260.81 1101.2C1257.28 1092.7 1257.28 1083.16 1260.8 1074.66C1264.31 1066.16 1271.06 1059.4 1279.56 1055.88L1289.86 1038.23L1322.65 1038.01L1329.83 1035.03L1343.55 1068.11Z" fill="#2F2E41"/>
<path d="M1490.14 543.29L1284.49 564.775L1256.99 657.424L1161.72 810.517L1266.91 1003.77L1303.95 970.522L1268.39 814.468L1374.52 699.894L1394.64 691.544L1410.62 1116.7L1469.7 1117.67L1495.56 648.537C1507.98 607.094 1504.24 572.875 1490.14 543.29Z" fill="#320662"/>
<path d="M1414.74 249.988L1380.99 211.981L1327.65 217.907L1293.51 265.695C1275.33 269.873 1259.45 280.859 1249.12 296.392C1238.8 311.924 1234.82 330.823 1238.01 349.198C1251.26 425.5 1296.29 499.504 1281.42 537.152C1258.85 594.3 1257.48 617.608 1311.51 609.596C1365.54 601.583 1546.55 583.113 1511.45 548.019C1476.36 512.925 1468.65 454.281 1468.65 454.281L1467.24 320.114C1468.74 312.022 1468.54 303.709 1466.66 295.698C1464.78 287.686 1461.27 280.15 1456.34 273.563C1451.4 266.976 1445.16 261.481 1438 257.424C1430.85 253.366 1422.93 250.835 1414.74 249.988Z" fill="#8184A7"/>
<path d="M1348.78 202.255C1381.48 202.255 1407.98 175.749 1407.98 143.051C1407.98 110.353 1381.48 83.846 1348.78 83.846C1316.08 83.846 1289.58 110.353 1289.58 143.051C1289.58 175.749 1316.08 202.255 1348.78 202.255Z" fill="#FFB8B8"/>
<path d="M1421.73 139.535C1419.09 151.531 1414.32 162.956 1407.65 173.272C1405.88 176.789 1403.23 179.792 1399.97 181.993C1398.31 183.054 1396.34 183.501 1394.39 183.257C1392.44 183.014 1390.64 182.094 1389.3 180.659L1387.86 179.486C1390.68 177.745 1393.21 175.556 1395.33 173.005C1396.38 171.725 1397.11 170.212 1397.45 168.593C1397.8 166.975 1397.76 165.296 1397.33 163.697C1396.82 162.121 1395.71 160.804 1394.25 160.023C1392.79 159.242 1391.08 159.059 1389.49 159.51C1386.02 160.871 1383.91 165.884 1380.29 165.111C1377.35 164.471 1376.74 160.604 1376.74 157.564C1376.84 141.669 1369.16 119.08 1363.22 119.773C1357.21 120.102 1351.19 119.296 1345.48 117.4C1339.76 115.499 1333.73 114.729 1327.72 115.133C1327.29 115.186 1326.87 115.266 1326.41 115.346C1325.45 112.326 1324.12 109.434 1322.47 106.732C1322.65 109.993 1322.49 113.265 1321.99 116.493C1317.2 118.464 1312.26 120.026 1307.21 121.16C1301.72 121.933 1289.64 138.362 1289.08 136.681C1288.11 133.661 1286.79 130.769 1285.13 128.067C1285.32 131.329 1285.15 134.601 1284.65 137.828C1284.62 137.961 1284.62 138.068 1284.6 138.202C1281.93 134.654 1280.3 130.334 1281.21 133.641C1272.27 113.426 1275.74 98.9443 1289.8 81.9026C1292.54 78.2382 1296.16 75.3293 1300.33 73.4483C1302.42 72.5309 1304.71 72.1667 1306.98 72.3909C1309.25 72.6152 1311.42 73.4202 1313.29 74.7285C1319.02 69.4728 1326.06 65.8459 1333.66 64.2234C1341.27 62.6009 1349.17 63.0419 1356.55 65.5009C1371.19 70.5948 1382.47 73.5818 1384.71 88.9433C1396.82 86.9964 1409.27 93.8771 1415.94 104.145C1422.58 114.439 1423.94 127.507 1421.73 139.535Z" fill="#2F2E41"/>
<path d="M1373.72 631.284H1354.07V480.048H1370.05C1370.82 480.048 1371.57 480.355 1372.12 480.901C1372.66 481.447 1372.97 482.187 1372.98 482.961L1373.72 631.284Z" fill="#3F3D56"/>
<path d="M1355.91 632.084H1144.89V524.379H1355.91V632.084Z" fill="white"/>
<path d="M1272.73 631.684H1145.29V524.779H1355.51V548.911C1355.48 570.856 1346.75 591.895 1331.23 607.413C1315.72 622.93 1294.68 631.659 1272.73 631.684Z" fill="#7F3FB1"/>
<path d="M1370.52 484.344C1370.41 484.545 1370.33 484.757 1370.27 484.977L1363 513.024L1355.1 527.972H1145.69V524.249L1157.61 513.024L1171.52 486.42C1172.13 485.246 1172.94 484.182 1173.91 483.274C1176.11 481.202 1179.02 480.048 1182.04 480.048H1367.93C1368.43 480.048 1368.93 480.179 1369.37 480.427C1369.81 480.675 1370.18 481.033 1370.44 481.465C1370.7 481.897 1370.84 482.389 1370.86 482.894C1370.87 483.398 1370.75 483.898 1370.52 484.344Z" fill="#3F3D56"/>
<path d="M1355.91 632.084H1144.89V524.379H1355.91V632.084ZM1146.49 630.482H1354.3V525.981H1146.49V630.482Z" fill="#3F3D56"/>
<path d="M1366.88 498.691L1363 513.025H1157.61L1164.25 501.094L1366.88 498.691Z" fill="#7F3FB1"/>
<path d="M1186.31 580.818H1152.67V582.679H1186.31V580.818Z" fill="white"/>
<path d="M1186.31 587.333H1152.67V589.195H1186.31V587.333Z" fill="white"/>
<path d="M1186.31 593.848H1152.67V595.71H1186.31V593.848Z" fill="white"/>
<path d="M1165.7 560.082C1172.38 560.082 1177.8 554.665 1177.8 547.983C1177.8 541.3 1172.38 535.883 1165.7 535.883C1159.02 535.883 1153.6 541.3 1153.6 547.983C1153.6 554.665 1159.02 560.082 1165.7 560.082Z" fill="white"/>
<path d="M1455.81 394.837L1407.71 387.947C1391.44 415.151 1385.66 487.561 1385.66 487.561L1338.58 599.456C1335.46 601.573 1332.96 604.475 1331.32 607.868C1329.68 611.262 1328.96 615.028 1329.24 618.786C1329.52 622.545 1330.78 626.164 1332.9 629.279C1335.02 632.395 1337.93 634.896 1341.32 636.532C1344.72 638.168 1348.48 638.88 1352.24 638.598C1356 638.315 1359.62 637.048 1362.73 634.923C1365.84 632.798 1368.34 629.89 1369.97 626.493C1371.61 623.095 1372.31 619.328 1372.03 615.57L1449.32 485.329L1455.81 394.837Z" fill="#FFB8B8"/>
<path d="M1429.74 261.288C1437.19 262.441 1444.29 265.221 1450.53 269.43C1456.78 273.639 1462.03 279.173 1465.9 285.64C1469.76 292.106 1472.16 299.345 1472.91 306.842C1473.66 314.339 1472.75 321.909 1470.24 329.014L1460.04 357.948C1460.04 357.948 1472.89 445.069 1451.7 469.661L1386.67 463.775C1386.67 463.775 1398.56 419.821 1389.44 398.555C1383.85 385.531 1384.16 340.548 1389.66 303.955C1393.87 276.013 1401.82 256.964 1429.74 261.288Z" fill="#8184A7"/>
<path d="M1021.27 117.139C997.764 128.86 979.88 149.438 971.55 174.345C963.219 199.253 965.124 226.449 976.846 249.952C1001.25 298.894 1089.46 382.364 1159.83 394.976C1129.56 303.061 1171.65 209.633 1154.08 161.561C1135.31 110.193 1070.21 92.7304 1021.27 117.139Z" fill="#7F3FB1"/>
<path d="M1054.26 233.539C1072.09 233.539 1086.55 219.08 1086.55 201.243C1086.55 183.407 1072.09 168.947 1054.26 168.947C1036.42 168.947 1021.96 183.407 1021.96 201.243C1021.96 219.08 1036.42 233.539 1054.26 233.539Z" fill="white"/>
<path d="M1159.21 446.813C1170.89 446.813 1180.36 437.343 1180.36 425.66C1180.36 413.978 1170.89 404.507 1159.21 404.507C1147.53 404.507 1138.06 413.978 1138.06 425.66C1138.06 437.343 1147.53 446.813 1159.21 446.813Z" fill="#7F3FB1"/>
<path opacity="0.2" d="M1064.1 167.294C1068.34 167.147 1072.57 167.837 1076.54 169.324C1080.52 170.812 1084.16 173.068 1087.26 175.964C1090.36 178.86 1092.86 182.338 1094.62 186.201C1096.38 190.064 1097.35 194.235 1097.5 198.476C1097.64 202.717 1096.95 206.945 1095.46 210.917C1093.97 214.89 1091.71 218.53 1088.81 221.629C1085.91 224.729 1082.43 227.226 1078.56 228.98C1074.7 230.733 1070.53 231.707 1066.29 231.848C1073.47 229.174 1079.48 224.03 1083.22 217.337C1086.96 210.643 1088.2 202.836 1086.71 195.313C1085.22 187.791 1081.1 181.043 1075.09 176.279C1069.08 171.515 1061.58 169.044 1053.91 169.31C1057.18 168.093 1060.62 167.412 1064.1 167.294Z" fill="#231F20"/>
<path opacity="0.2" d="M1154.24 161.579C1171.81 209.652 1129.72 303.08 1159.99 394.995C1153.35 393.772 1146.81 392.059 1140.42 389.871C1115.76 301.017 1154.47 212.232 1137.49 165.785C1122.3 124.214 1076.76 104.853 1034.01 111.916C1080.93 95.9124 1137.04 114.506 1154.24 161.579Z" fill="#231F20"/>
<path d="M162.86 607.593C138.531 607.009 114.966 616.114 97.35 632.904C79.7338 649.694 69.5088 672.794 68.9246 697.123C67.7082 747.785 103.78 854.372 155.954 895.197C170.99 806.797 245.949 748.516 252.389 701.528C259.271 651.321 213.522 608.81 162.86 607.593Z" fill="#D1D3D4"/>
<path d="M153.435 720.699C169.962 720.699 183.36 707.301 183.36 690.773C183.36 674.246 169.962 660.848 153.435 660.848C136.907 660.848 123.509 674.246 123.509 690.773C123.509 707.301 136.907 720.699 153.435 720.699Z" fill="white"/>
<path d="M142.149 939.66C152.975 939.66 161.75 930.884 161.75 920.059C161.75 909.234 152.975 900.459 142.149 900.459C131.324 900.459 122.549 909.234 122.549 920.059C122.549 930.884 131.324 939.66 142.149 939.66Z" fill="#D1D3D4"/>
<path opacity="0.2" d="M176.208 667.233C183.345 670.705 188.81 676.87 191.402 684.371C193.993 691.873 193.499 700.097 190.027 707.233C188.308 710.767 185.91 713.928 182.969 716.535C180.029 719.142 176.603 721.144 172.889 722.427C165.387 725.019 157.164 724.525 150.027 721.053C157.072 721.978 164.216 720.365 170.181 716.504C176.146 712.643 180.542 706.785 182.583 699.979C184.623 693.172 184.175 685.862 181.318 679.356C178.461 672.85 173.382 667.573 166.99 664.47C170.191 664.887 173.304 665.821 176.208 667.233Z" fill="#231F20"/>
<path opacity="0.2" d="M252.514 701.614C246.074 748.601 171.115 806.883 156.079 895.283C151.168 891.403 146.552 887.165 142.267 882.604C160.569 799.141 230.748 743.197 236.97 697.799C242.54 657.167 213.637 621.58 175.558 608.837C220.927 616.064 258.821 655.604 252.514 701.614Z" fill="#231F20"/>
<path d="M510.979 217.678C504.142 218.125 497.749 221.223 493.16 226.312C488.572 231.401 486.15 238.08 486.411 244.927C486.486 246.318 486.676 247.701 486.979 249.06L409.332 297.977L452.259 316.963L519.413 267.6C524.953 265.907 529.778 262.427 533.133 257.704C536.488 252.981 538.185 247.281 537.96 241.492C537.8 238.199 536.993 234.97 535.585 231.989C534.177 229.008 532.196 226.333 529.755 224.118C527.313 221.902 524.459 220.19 521.356 219.077C518.253 217.965 514.961 217.475 511.668 217.635C511.438 217.646 511.209 217.66 510.979 217.678Z" fill="#FFB6B6"/>
<path d="M436.104 275.744L455.348 315.449L379.26 364.412C373.846 367.926 367.623 369.997 361.184 370.428C354.744 370.86 348.3 369.637 342.466 366.877C335.373 363.482 329.576 357.873 325.948 350.896C322.32 343.919 321.058 335.952 322.352 328.195L347.041 187.245C348.699 177.382 354.073 168.528 362.059 162.506C370.044 156.483 380.034 153.75 389.973 154.867C394.814 155.397 399.504 156.874 403.774 159.216C408.044 161.558 411.811 164.718 414.86 168.515C417.909 172.313 420.18 176.674 421.543 181.349C422.907 186.024 423.336 190.922 422.807 195.763C422.765 196.146 422.717 196.527 422.663 196.908C422.477 198.263 422.217 199.606 421.886 200.933L394.933 301.174L436.104 275.744Z" fill="#7F3FB1"/>
<path d="M441.512 337.296H332.698V446.111H441.512V337.296Z" fill="#FFB8B8"/>
<path d="M699.565 657.762L741.123 643.782L764.265 756.901L736.104 766.373L699.565 657.762Z" fill="#FFB6B6"/>
<path d="M629.131 649.07L670.353 634.126L696.121 746.674L668.19 756.798L629.131 649.07Z" fill="#FFB6B6"/>
<path d="M336.601 474.538C314.791 619.937 605.227 533.975 605.227 533.975L696.29 659.597L749.603 649.904C749.603 649.904 725.614 574.49 682.773 473.392C663.747 428.495 447.712 439.466 447.712 439.466L443.226 404.262L319.638 401.839L336.601 474.538Z" fill="#320662"/>
<path d="M546.396 543.722L613.556 501.894C662.722 600.071 677.214 642.59 677.214 642.59L630.733 655.661L546.396 543.722Z" fill="#320662"/>
<path d="M398.763 160.473L376.861 132.319L345.618 130.965L342.5 157.443L327.019 164.582C311.562 223.307 309.175 284.708 320.026 344.456C322.1 346.409 323.616 348.881 324.417 351.616C325.218 354.35 325.275 357.249 324.582 360.013L323.578 364.014L323.671 364.161C326.965 369.359 328.082 375.644 326.782 381.658L319.389 394.795C316.736 399.519 315.144 404.764 314.724 410.166C314.303 415.568 315.064 420.997 316.954 426.075C318.844 431.152 321.817 435.758 325.667 439.57C329.517 443.383 334.151 446.311 339.247 448.151C384.691 464.623 427.291 470.759 458.806 424.536L468.716 263.458L398.763 160.473Z" fill="#7F3FB1"/>
<path d="M375.819 139.796C407.722 139.796 433.585 113.933 433.585 82.0295C433.585 50.1261 407.722 24.2632 375.819 24.2632C343.915 24.2632 318.052 50.1261 318.052 82.0295C318.052 113.933 343.915 139.796 375.819 139.796Z" fill="#FFB8B8"/>
<path d="M346.82 12.3931C322.361 12.863 302.961 35.5506 303.49 63.0672C285.39 81.9536 281.005 174.849 296.129 199.561C323.795 202.773 340.623 134.326 364.886 144.221L368.082 129.283L375.327 148.736C381.493 151.578 387.613 154.698 393.686 158.096C398.05 138.078 396.968 118.621 385.238 101.673C374.817 86.6159 400.177 68.7408 418.312 71.2672L418.047 57.4385L422.602 71.1848C429.672 76.3796 437.492 74.499 445.511 70.7447C458.515 3.16007 357.836 -15.3222 346.82 12.3931Z" fill="#2F2E41"/>
<path d="M723.305 785.506L741.82 783.087L742.842 765.175L753.589 781.55L802.696 775.135C805.05 774.828 807.244 773.776 808.958 772.134C810.672 770.491 811.815 768.344 812.222 766.005C812.629 763.666 812.278 761.259 811.22 759.134C810.162 757.009 808.452 755.278 806.34 754.193L763.587 732.233L761.279 714.56L720.353 722.41L723.305 785.506Z" fill="#2F2E41"/>
<path d="M674.402 785.667L691.199 777.511L686.497 760.197L701.876 772.327L746.425 750.694C748.561 749.658 750.309 747.965 751.415 745.865C752.52 743.764 752.925 741.365 752.571 739.018C752.217 736.67 751.121 734.498 749.445 732.817C747.768 731.137 745.598 730.036 743.252 729.676L695.745 722.381L687.96 706.349L651.625 726.752L674.402 785.667Z" fill="#2F2E41"/>
<path d="M420.837 400.455H441.433V241.934H424.683C423.871 241.934 423.093 242.256 422.518 242.828C421.943 243.4 421.618 244.177 421.613 244.988L420.837 400.455Z" fill="#CCCCCC"/>
<path d="M439.509 288.4H660.692V401.294H439.509V288.4Z" fill="white"/>
<path d="M439.928 314.115V288.82H660.273V400.875H526.688C503.686 400.849 481.633 391.7 465.368 375.435C449.103 359.17 439.954 337.117 439.928 314.115Z" fill="#F2F2F2"/>
<path d="M424.191 246.437C424.302 246.647 424.388 246.87 424.448 247.1L432.075 276.499L440.348 292.166H659.852V288.264L647.355 276.499L632.777 248.613C632.133 247.382 631.288 246.268 630.276 245.316C627.968 243.144 624.918 241.934 621.749 241.934H426.905C426.376 241.934 425.856 242.071 425.395 242.331C424.935 242.592 424.549 242.966 424.276 243.419C424.003 243.872 423.852 244.388 423.837 244.917C423.822 245.446 423.944 245.969 424.191 246.437Z" fill="#F2F2F2"/>
<path d="M439.509 288.4H660.692V401.294H439.509V288.4ZM659.013 399.615H441.188V290.08H659.013L659.013 399.615Z" fill="#E6E6E6"/>
<path d="M428 261.475L432.076 276.499H647.356L640.398 263.995L428 261.475Z" fill="#CCCCCC"/>
<path d="M652.535 347.558H617.277V349.51H652.535V347.558Z" fill="white"/>
<path d="M652.535 354.388H617.277V356.339H652.535V354.388Z" fill="white"/>
<path d="M652.535 361.217H617.277V363.168H652.535V361.217Z" fill="white"/>
<path d="M638.878 325.824C645.882 325.824 651.56 320.146 651.56 313.141C651.56 306.137 645.882 300.459 638.878 300.459C631.873 300.459 626.195 306.137 626.195 313.141C626.195 320.146 631.873 325.824 638.878 325.824Z" fill="white"/>
<path d="M536.569 121.511C551.476 121.153 565.915 126.732 576.709 137.02C587.503 147.308 593.769 161.463 594.126 176.37C594.872 207.413 572.769 272.723 540.8 297.739C531.586 243.572 485.656 207.86 481.709 179.069C477.493 148.305 505.525 122.257 536.569 121.511Z" fill="#D1D3D4"/>
<path d="M542.344 190.816C552.471 190.816 560.68 182.606 560.68 172.479C560.68 162.352 552.471 154.143 542.344 154.143C532.217 154.143 524.007 162.352 524.007 172.479C524.007 182.606 532.217 190.816 542.344 190.816Z" fill="white"/>
<path d="M549.259 324.983C555.892 324.983 561.269 319.606 561.269 312.973C561.269 306.34 555.892 300.963 549.259 300.963C542.626 300.963 537.249 306.34 537.249 312.973C537.249 319.606 542.626 324.983 549.259 324.983Z" fill="#D1D3D4"/>
<path opacity="0.2" d="M528.39 158.055C526.224 159.108 524.288 160.578 522.69 162.38C521.093 164.182 519.866 166.28 519.08 168.556C518.293 170.832 517.963 173.241 518.108 175.644C518.252 178.048 518.869 180.4 519.922 182.565C520.975 184.73 522.445 186.667 524.247 188.265C526.048 189.862 528.147 191.089 530.423 191.875C532.699 192.661 535.108 192.992 537.511 192.847C539.915 192.703 542.267 192.086 544.432 191.033C540.115 191.6 535.737 190.612 532.082 188.246C528.427 185.88 525.734 182.29 524.483 178.12C523.233 173.949 523.508 169.47 525.258 165.483C527.009 161.497 530.121 158.263 534.038 156.362C532.076 156.618 530.169 157.19 528.39 158.055Z" fill="#231F20"/>
<path opacity="0.2" d="M481.633 179.122C485.58 207.913 531.51 243.625 540.724 297.791C543.732 295.414 546.561 292.817 549.187 290.022C537.973 238.881 494.971 204.602 491.158 176.784C487.745 151.887 505.455 130.081 528.788 122.273C500.988 126.701 477.769 150.929 481.633 179.122Z" fill="#231F20"/>
<path d="M503.904 273.991C497.07 273.485 490.309 275.666 485.058 280.069C479.808 284.472 476.483 290.749 475.79 297.567C475.671 298.955 475.668 300.35 475.779 301.738L392.094 339.403L431.97 364.164L505.325 324.601C511.047 323.694 516.308 320.918 520.286 316.706C524.265 312.495 526.737 307.085 527.317 301.32C527.921 294.69 525.865 288.091 521.603 282.976C517.341 277.86 511.222 274.648 504.591 274.044C504.362 274.024 504.133 274.006 503.904 273.991Z" fill="#FFB6B6"/>
<path d="M421.693 321.101L435.238 363.093L353.09 401.02C347.241 403.748 340.791 404.935 334.353 404.469C327.916 404.002 321.705 401.897 316.31 398.353C309.757 394.006 304.794 387.647 302.17 380.234C299.546 372.821 299.402 364.756 301.761 357.254L345.777 221.096C348.788 211.558 355.339 203.536 364.083 198.681C372.828 193.825 383.1 192.505 392.788 194.991C397.509 196.187 401.947 198.302 405.851 201.214C409.755 204.126 413.047 207.778 415.539 211.962C418.031 216.146 419.675 220.78 420.376 225.599C421.078 230.418 420.823 235.328 419.627 240.049C419.532 240.422 419.432 240.794 419.326 241.163C418.953 242.479 418.509 243.773 417.997 245.041L377.39 340.57L421.693 321.101Z" fill="#7F3FB1"/>
</g>
<defs>
<clipPath id="clip0_35_2">
<rect width="1686.88" height="1216" fill="white"/>
</clipPath>
</defs>
</svg>
